<svg id="main-logo" xmlns="http://www.w3.org/2000/svg" width="183.76" height="194.229" viewBox="0 0 183.76 194.229">
  <g id="Group_731" data-name="Group 731" transform="translate(0 0)">
    <g id="logo_uj_main" transform="translate(0)">
      <path id="Path_874" data-name="Path 874" d="M169.557,117.772c.73-2.886,1.467-5.772,2.19-8.65,2.608-10.354,5.187-20.708,7.823-31.055.834-3.289,1.572-6.6,2.559-9.846a46.464,46.464,0,0,1,3.984-9.193,63.487,63.487,0,0,1,7.023-10.034A93.514,93.514,0,0,1,201.9,40.03a.452.452,0,0,1,.6-.111c1.884.974,3.776,1.926,5.66,2.879,1.133.57,1.279.862,1.029,2.086a6.314,6.314,0,0,0,4.374,7.392,2.086,2.086,0,0,1,1.683,1.8c.056.341.16.7.195,1.029a1.794,1.794,0,0,1-.6,1.572,5.653,5.653,0,0,0-1.537,1.94c-1.231-.626-2.441-1.2-3.685-1.731a6.209,6.209,0,0,0-1.279-4.506,5.98,5.98,0,0,0-10.118,1.161,5.834,5.834,0,0,0,2.19,7.559c.181.111.382.2.577.3a2.01,2.01,0,0,1,1.321,1.829c0,.417.063.827.083,1.245a2,2,0,0,1-1.106,1.968,6.557,6.557,0,0,0-2.858,3.3,7.7,7.7,0,0,0,5.813,10.034,6.842,6.842,0,0,0,5.521-1.648c1.168-.974,1.391-1.022,2.635-.132.994.7,1.947,1.453,2.955,2.142a.737.737,0,0,1,.334,1.022,8.755,8.755,0,0,0,.848,7.948,9.262,9.262,0,0,0,13.907,2.2,1.815,1.815,0,0,1,.188-.132c.153.1.09.229.063.327-1.015,4.36-1.982,8.727-3.08,13.059a72.071,72.071,0,0,1-5.994,15.736,39.247,39.247,0,0,1-5.758,8.136c-1.648,1.815-3.338,3.588-5.118,5.271a62.451,62.451,0,0,1-15.882,11.258,41.1,41.1,0,0,1-9.415,3.067c-2.413.5-4.868.883-7.28,1.182-.807.1-1.62.153-2.434.209a50.82,50.82,0,0,1-5.445.09,33.786,33.786,0,0,1-8.344-1.224c.035-.125.063-.257.09-.382v-.382h0a1.015,1.015,0,0,0,.2-.535l5.82-23.107Q168.813,120.818,169.557,117.772Zm18.775,24.936a2.719,2.719,0,0,0,1.481-.389,1.634,1.634,0,0,0,.932-1.7,4.075,4.075,0,0,0-2.086-3.136,2.435,2.435,0,0,0-3.588,1.46c-.209,1.46,1.057,3.811,3.233,3.762Zm-6.349.083.591-.751a5.5,5.5,0,0,0,.848-1.286,1.627,1.627,0,0,0-.814-2.3,4.374,4.374,0,0,0-3.553.195c.285.821.292.821.987.6a4.026,4.026,0,0,1,1.391-.167.814.814,0,0,1,.848,1.064,1.947,1.947,0,0,1-.431.841c-.535.64-1.064,1.279-1.62,1.891a.7.7,0,0,0-.174.807c.139.355.417.209.64.209a15.7,15.7,0,0,0,1.891-.118,17.658,17.658,0,0,0,2.594-.417c-.042-.139-.077-.236-.1-.327-.111-.41-.292-.556-.779-.466a8.27,8.27,0,0,1-2.343.222Zm18.079-7.8c-.834-.841-1.551-1.787-2.336-2.733-.243.306-.7.334-.7.814,0,1.328-.083,2.656-.2,3.984a.827.827,0,0,0,.341.786c.236.167.431-.09.619-.2.7-.4,1.307-.834,2.037-1.3l.612.7a4.7,4.7,0,0,0,.9-.7c-.118-.125-.222-.23-.313-.341a.848.848,0,0,1-.3-.431l.445-.285c-.515-.681-.535-.681-1.161-.292Zm-7.482.417a2.823,2.823,0,0,0-1.481.9c-.5.438-.515.424-.076.987.369-.063.6-.445,1.008-.528.535,1.05,1.189,2.01,1.787,3.025-.417.306-.932.327-1.307.647a2.587,2.587,0,0,0,.48.7,27.279,27.279,0,0,0,3.762-1.752c-.5-.744-.5-.744-1.21-.362a.382.382,0,0,0-.174.09.4.4,0,0,1-.654-.16,5.211,5.211,0,0,0-.313-.452c-.688-1.015-1.266-2.065-1.871-3.094Z" transform="translate(-64.255 -18.9)" fill="#80cded"/>
      <path id="Path_875" data-name="Path 875" d="M60.482,132.6c-.64.7-1.286,1.391-1.919,2.086a64.219,64.219,0,0,1-4.937,4.868,56.114,56.114,0,0,1-7.308,5.563,34.771,34.771,0,0,1-9.881,4.506,54.636,54.636,0,0,1-7.336,1.391,26.065,26.065,0,0,1-4.033.174,7.176,7.176,0,0,1-2.531-.515,2.469,2.469,0,0,1-.793-.515.828.828,0,0,1-.243-.9q2.781-10.882,5.473-21.765,3.24-12.892,6.5-25.784,2.086-8.459,4.29-16.918a38.488,38.488,0,0,1,4.777-10.729,57.631,57.631,0,0,1,5.069-6.808.73.73,0,0,1,.424-.334l1.1,1.627,4.1-2.726-1.738-2.656c.841-.89,1.725-1.711,2.656-2.524L56.6,64.007l3.692-2.733c.25-.188.16-.341,0-.542-.737-.987-1.453-1.989-2.19-2.976-.16-.209-.209-.362,0-.535l2.288-1.787,1.773,2.635c.348.528.7,1.05,1.036,1.592.181.306.348.334.633.139,1.509-1.008,3.018-2.017,4.541-3,.348-.223.3-.4.111-.7-.9-1.342-1.78-2.7-2.67-4.047l-.16-.243c1.085-.73,2.2-1.391,3.407-2.037l2.781,6.689,3.477-1.391c1.293-.535,2.58-1.092,3.88-1.6.4-.153.466-.292.306-.7-.869-2.086-1.718-4.172-2.566-6.258-.042-.1-.076-.209-.139-.382a42.133,42.133,0,0,1,9.54-2.656c.153.167.07.327,0,.48Q83.763,54.321,81.176,64.7a.876.876,0,0,1-.535.647c-1.182.577-2.35,1.175-3.539,1.766a3.053,3.053,0,0,0,.4.932c.508,1.029.974,2.086,1.565,3.067a1.662,1.662,0,0,1,.167,1.391q-1.947,7.788-3.866,15.59c-.431,1.745-.848,3.477-1.293,5.229a6.883,6.883,0,0,0-.118.834,1.126,1.126,0,0,0-.174.41q-.855,3.553-1.718,7.107c-1.064,4.353-2.086,8.713-3.2,13.052a58.7,58.7,0,0,1-3.825,10.431A36.158,36.158,0,0,1,60.482,132.6Zm18.08-75.906-5.681,2.684a1.129,1.129,0,0,0,.042.188l2.489,5.278c.132.285.306.229.522.125l2.35-1.1,3-1.391c-.883-1.947-1.731-3.838-2.691-5.785Zm-1.1,16.431-2.441-4.3c-1.439.827-2.837,1.62-4.283,2.441l2.448,4.3ZM68.131,67.79l4.263-2.462-2.448-4.29L65.677,63.5Zm-4.576,6.773,2.781,4c.1-.049.16-.07.216-.1,1.168-.827,2.329-1.655,3.477-2.469.3-.209.216-.4.049-.626-.7-.932-1.321-1.871-2-2.781a3.755,3.755,0,0,0-.633-.821ZM58.132,67.31,61,71.322l3.734-2.684a.292.292,0,0,0,.07-.466c-.89-1.238-1.773-2.482-2.677-3.748ZM56.6,77.483l2.044,2.781,2.781-2.086L59.391,75.4Zm.751-5.9L55.33,68.8l-2.781,2.03,2.03,2.781Zm-8.122,6.1,2.455-2.086a.223.223,0,0,0,0-.355L49.6,72.783l-2.628,2.225Z" transform="translate(-21.455 -20.007)" fill="#80cded"/>
      <path id="Path_876" data-name="Path 876" d="M99.3,135.1a2.552,2.552,0,0,0,.3-.946c.7-2.886,1.467-5.772,2.183-8.657a1.307,1.307,0,0,1,.57-.772c6.55-4.812,13.038-9.735,19.818-14.206a144.7,144.7,0,0,1,17.21-10.062c2.538-1.217,5.083-2.42,7.712-3.428l.313-.1-.848,3.421q-1.2,4.868-2.392,9.784a3.891,3.891,0,0,0-.056.4c-.362,1.064-.577,2.17-.834,3.261-1.106,4.6-2.232,9.186-3.324,13.782a72.4,72.4,0,0,1-3.859,11.974,41.938,41.938,0,0,1-4.5,8.2,7.77,7.77,0,0,0-.9,1.175c-.7.772-1.432,1.53-2.128,2.309a59.712,59.712,0,0,1-4.471,4.429,59.105,59.105,0,0,1-7.1,5.507,36.5,36.5,0,0,1-13.907,5.563,35.693,35.693,0,0,1-7.83.772,6.188,6.188,0,0,1-2.837-.7c-.466-.257-.883-.57-.779-1.2a1.307,1.307,0,0,0,.2-.64,1.033,1.033,0,0,1,0-.146q3.421-13.56,6.849-27.119A14.053,14.053,0,0,0,99.3,135.1Zm18.691-8.219h0a5.382,5.382,0,0,0-1.328,2.086,3.755,3.755,0,0,0,.188,2.733,12.876,12.876,0,0,1,.146-1.391,3.254,3.254,0,0,1,1.293-2.149h0a9.81,9.81,0,0,0-.369,1.342,4.283,4.283,0,0,0,.932,3.359c-.313-2.35,0-3.637.883-3.88a36.117,36.117,0,0,1-.2,9.554c-3.317-2.552-6.815-3.665-10.785-1.822,4.235-1.036,7.649.64,10.813,3.282-1.321,1.126-2.469,2.357-3.852,3.331a.4.4,0,0,1-.563,0,.9.9,0,0,0-1.266.236.862.862,0,0,0,.25,1.259,1.53,1.53,0,0,0,1.773-.118,13.273,13.273,0,0,0,2.281-1.85q1.106-1.043,2.239-2.086l.647.556c.932.855,1.843,1.738,2.781,2.566a4.04,4.04,0,0,0,2.017,1.14,1.189,1.189,0,0,0,1.168-.591.841.841,0,0,0-.2-1.043.89.89,0,0,0-1.217,0,.32.32,0,0,1-.438,0,49.818,49.818,0,0,1-3.887-3.352c3.185-2.642,6.585-4.311,10.834-3.213-.07-.181-.195-.2-.3-.25a8.7,8.7,0,0,0-5.021-.626,11.606,11.606,0,0,0-5.034,2.3c-.139.1-.25.271-.48.2a36.382,36.382,0,0,1-.167-9.485c.96.508,1.175,1.516.869,3.957a4.575,4.575,0,0,0,.869-1.745,4.965,4.965,0,0,0-.3-2.976h0a3.3,3.3,0,0,1,1.293,2.156c.1.445.076.911.153,1.356a4.143,4.143,0,0,0-1.12-4.77c1.238.118,2.218,1.391,2.455,3.06a3.289,3.289,0,0,0-.334-2.6,4.089,4.089,0,0,0-2.3-1.572,3.651,3.651,0,0,1,3.018,1.015c-.591-1.7-1.905-2.086-3.616-1.843a2.357,2.357,0,0,1,2.4-.7,2.462,2.462,0,0,0-1.467-.7,2.2,2.2,0,0,0-1.919.932,6.739,6.739,0,0,1-.7-1.864,6.953,6.953,0,0,1-.7,1.829c-1.286-1.14-2.531-1.21-3.261-.2,1.245-.083,1.766.083,2.2.758a3.171,3.171,0,0,0-2.211.188,2.01,2.01,0,0,0-1.293,1.676,3.338,3.338,0,0,1,2.886-1.078c-2.281,1.113-3.213,2.7-2.489,4.235a3.324,3.324,0,0,1,.633-1.947,2.468,2.468,0,0,1,1.794-1.266Z" transform="translate(-42.829 -36.286)" fill="#80cded"/>
      <path id="Path_877" data-name="Path 877" d="M251.3,71.65a9.259,9.259,0,0,0-7.885-5.827,9.1,9.1,0,0,0-8.755,4.367,3.053,3.053,0,0,1-.751-.494l-2.962-2.163c-.821-.6-.953-.96-.605-1.919a7.225,7.225,0,0,0-5.681-9.471,13.144,13.144,0,0,0-2.086-.076c-.7,0-.869-.195-.869-.848V54.064c0-.841.2-1.106,1.029-1.21a5.716,5.716,0,0,0,2.781-1.029,6.057,6.057,0,0,0,1.954-2.684c.049-.125.1-.243.16-.382,1.154.459,2.225,1.029,3.31,1.572a.32.32,0,0,1,.188.4,5.507,5.507,0,0,0,8.859,5.187A5.563,5.563,0,0,0,238.76,46.6a4.172,4.172,0,0,0-2.628-.362,2.873,2.873,0,0,1-.6,0c-.6,0-.862-.216-.946-.807a6.1,6.1,0,0,0-.2-.925c-.223-.7-.063-.953.64-1.085a6.822,6.822,0,0,0,2.781-1.224,6.516,6.516,0,0,0,1.62-8.963,1.419,1.419,0,0,1,.139-2.086l6.835-8.539q4.124-5.153,8.226-10.312a.9.9,0,0,1,.487-.313,80.753,80.753,0,0,1,10.6-2.232.633.633,0,0,1,.5.063Q258.766,40.7,251.3,71.65Z" transform="translate(-82.46 -9.723)" fill="#80cded"/>
      <path id="Path_878" data-name="Path 878" d="M164.773,236.441H144.419a13.213,13.213,0,0,1-4.965-.98.987.987,0,0,0-.841,0,13.248,13.248,0,0,1-5.062.973H119.539a12.521,12.521,0,0,1-2.274-.271,4.36,4.36,0,0,1-3.706-3.8,14.874,14.874,0,0,1,0-5.709,4.276,4.276,0,0,1,3.692-3.623,23.49,23.49,0,0,1,5.674-.243c1.266.049,2.531.1,3.79.236a.828.828,0,0,1,.48.118v9.937a46.744,46.744,0,0,0,8.344-.188c-.7-.7-1.391-1.342-2.03-2.017a5.7,5.7,0,0,1-1.8-4.443,3.629,3.629,0,0,0,0-.953c-.118-.584.16-.848.654-1.092a14.95,14.95,0,0,1,6.564-1.7,15.3,15.3,0,0,1,7.3,1.94.41.41,0,0,1,.257.431c-.042.814-.076,1.634-.125,2.448a4.8,4.8,0,0,1-1.259,2.816c-.758.911-1.62,1.718-2.5,2.58a2.218,2.218,0,0,0,1.071.223h8.254a.212.212,0,0,0,.118-.049,19.991,19.991,0,0,1-.334-3.407,23.329,23.329,0,0,1,.848-5.716.7.7,0,0,1,.5-.487,15.993,15.993,0,0,1,5.869-.7,9.457,9.457,0,0,1,2.023.278,4.587,4.587,0,0,1,3.692,4.3,53.1,53.1,0,0,1,.146,6.043C164.786,234.4,164.773,235.419,164.773,236.441Zm-41.214-3.3v-6.954l-1.064-.077a13.012,13.012,0,0,0-3.637.139,2.177,2.177,0,0,0-1.787,1.787,7.294,7.294,0,0,0,0,2.879,2.316,2.316,0,0,0,2.26,2.149A36.045,36.045,0,0,0,123.558,233.145Zm31.987-.042h5.563c0-1.467.056-2.9-.056-4.325a2.583,2.583,0,0,0-2.023-2.622,8.13,8.13,0,0,0-3.226,0,.321.321,0,0,0-.341.3,16.348,16.348,0,0,0,.1,6.648Zm-12.67-6.446a11.126,11.126,0,0,0-7.6,0,2.739,2.739,0,0,0,.327,1.432,8.059,8.059,0,0,0,3.261,3.352.32.32,0,0,0,.4,0,10.806,10.806,0,0,0,2.329-1.947,4.735,4.735,0,0,0,1.3-2.837Z" transform="translate(-37.483 -67.147)" fill="#114c66"/>
      <path id="Path_879" data-name="Path 879" d="M87.619,170.916a1.307,1.307,0,0,1-.2.64c-1.391-1.975-2.684-4.012-3.971-6.057a92.785,92.785,0,0,1-4.986-8.6,14.134,14.134,0,0,1-.841-2.086,36.159,36.159,0,0,0,4.534-7.392,58.7,58.7,0,0,0,3.824-10.43c1.12-4.339,2.135-8.7,3.2-13.052q.862-3.546,1.718-7.107a1.127,1.127,0,0,1,.174-.41c.223,3.623.584,7.232,1.05,10.834.313,2.406.7,4.8,1.161,7.183-.243.181-.153.459-.195.7q-.688,4.329-1.391,8.664c-.487,3.08-.953,6.168-1.432,9.255l-1.391,8.762c-.389,2.475-.8,4.951-1.154,7.433A3.4,3.4,0,0,0,87.619,170.916Z" transform="translate(-38.565 -42.227)" fill="#6e96a2"/>
      <path id="Path_880" data-name="Path 880" d="M147.8,154.839a7.77,7.77,0,0,1,.9-1.175,41.935,41.935,0,0,0,4.5-8.15,72.4,72.4,0,0,0,3.859-11.981c1.092-4.6,2.218-9.186,3.324-13.782.257-1.092.473-2.2.834-3.261.236,2.392.4,4.8.7,7.19.285,2.587.619,5.174,1.036,7.746.16,1,.327,2,.494,2.99a12.364,12.364,0,0,0-.348,1.954q-.633,3.915-1.238,7.83-.626,4.04-1.245,8.08c-.382,2.462-.779,4.923-1.161,7.385s-.793,4.958-1.168,7.433c-.188,1.252-.445,2.489-.542,3.748h0c-.1.125-.146.25,0,.382a1.527,1.527,0,0,1-.09.382c-1.182-1.648-2.267-3.366-3.359-5.069-1.822-2.851-3.609-5.723-5.18-8.72A15.468,15.468,0,0,1,147.8,154.839Z" transform="translate(-59.944 -42.248)" fill="#6e96a2"/>
      <path id="Path_881" data-name="Path 881" d="M124.2,71.816a33.1,33.1,0,0,1,2.413-3.233,68.656,68.656,0,0,1,6.55-6.954,81.3,81.3,0,0,1,15.416-11.522,61.464,61.464,0,0,1,11.738-5.257,41.765,41.765,0,0,1,5.959-1.432.7.7,0,0,1,.174,0c.125.118.076.229.049.341-.647,2.58-1.3,5.16-1.933,7.746a.612.612,0,0,1-.508.515,106.606,106.606,0,0,0-16.557,6.14,138.615,138.615,0,0,0-17.544,9.86c-1.759,1.154-3.477,2.343-5.208,3.539a1.182,1.182,0,0,1-.522.292Z" transform="translate(-52.755 -19.986)" fill="#80cded"/>
      <path id="Path_882" data-name="Path 882" d="M252.589,14.17l-1.349,1.7q-4.443,5.563-8.9,11.175-1.989,2.5-3.991,4.993a1.21,1.21,0,0,1-1.655.306,7.246,7.246,0,0,0-2.781-.765,5.806,5.806,0,0,0-4.29,1.391,10.417,10.417,0,0,0-.9.932,1.391,1.391,0,0,1-1.954.382c-1.356-.7-2.7-1.453-4.047-2.183l-1.676-.883A87.338,87.338,0,0,1,252.589,14.17Z" transform="translate(-82.256 -11.078)" fill="#80cded"/>
      <path id="Path_883" data-name="Path 883" d="M59.65,236.276v-3.247h8.588a10.445,10.445,0,0,0-.612-4.868,4.047,4.047,0,0,0-3.887-2.566H61.11l-.3-2.823a12.741,12.741,0,0,1,5.507-.334c2.858.647,4.339,2.663,5.09,5.34a13.907,13.907,0,0,1,.459,3.553V233h12.85c0-.049.049-.09.049-.132v-5.2a1.787,1.787,0,0,0-2.086-1.954c-1.711,0-3.428.118-5.139.181h-.591a19.468,19.468,0,0,1-.132-2.385,15.989,15.989,0,0,1,2.781-.563,19.975,19.975,0,0,1,5.027-.271c2.524.306,3.685,1.53,3.727,4.075.056,3.136,0,6.258,0,9.408a.611.611,0,0,1,0,.132Z" transform="translate(-21.144 -67.017)" fill="#114c66"/>
      <path id="Path_884" data-name="Path 884" d="M200.823,223.79c-.042-.821-.077-1.592-.118-2.385a22.953,22.953,0,0,1,3.616-.7,17.618,17.618,0,0,1,4.235-.16c2.489.32,3.651,1.391,3.727,3.922.1,3.213,0,6.432,0,9.693H192.36V215.39h3.6v15.458h12.683c.1-.132.063-.271.063-.4,0-1.655,0-3.3-.049-4.951-.056-1.391-.7-1.975-2.128-1.947-1.7.035-3.4.125-5.1.188Z" transform="translate(-61.572 -64.926)" fill="#114c66"/>
      <path id="Path_885" data-name="Path 885" d="M50.045,223.085V236.4c-.083.118-.209.077-.32.077h-7.4a10.485,10.485,0,0,1-2.663-.382,4.13,4.13,0,0,1-3.115-3.178,13.852,13.852,0,0,1-.083-6.383c.459-2.086,1.836-3.227,4.214-3.56a37.5,37.5,0,0,1,7.232,0A17.444,17.444,0,0,1,50.045,223.085Zm-3.63,10.1v-6.954l-1.057-.076a12.963,12.963,0,0,0-3.63.139,2.2,2.2,0,0,0-1.8,1.836,7.489,7.489,0,0,0-.063,2.58,2.416,2.416,0,0,0,2.392,2.42A37.547,37.547,0,0,0,46.415,233.181Z" transform="translate(-13.98 -67.183)" fill="#114c66"/>
      <path id="Path_886" data-name="Path 886" d="M157.316,75.69c-.236.946-.445,1.759-.7,2.566-.063.209-.292.209-.459.271a123.131,123.131,0,0,0-14.756,6.418c-3.477,1.843-6.856,3.79-10.25,5.744-5.737,3.3-11.216,7-16.73,10.653l-2.316,1.516c.195-.772.355-1.391.522-2.086.049-.174.209-.257.334-.355,6.258-4.812,12.836-9.144,19.526-13.3,2.323-1.446,4.742-2.719,7.169-3.971a109.268,109.268,0,0,1,11.126-5.18C152.858,77.157,155.007,76.448,157.316,75.69Z" transform="translate(-49.072 -29.819)" fill="#80cded"/>
      <path id="Path_887" data-name="Path 887" d="M154.279,86.73a10.835,10.835,0,0,1-.362,1.7c-.049.216-.223.271-.4.334a95.267,95.267,0,0,0-10.688,4.868,168.16,168.16,0,0,0-18.775,11.348c-5.055,3.477-10.1,6.954-15.013,10.6-.118.09-.25.16-.466.292.278-1.092.549-2.086.779-3.08a1.717,1.717,0,0,1,.744-1.1c6.529-4.617,13.212-9.04,19.985-13.268,3.428-2.086,6.954-4.04,10.535-5.925a93.046,93.046,0,0,1,13.212-5.681.834.834,0,0,1,.431-.076Z" transform="translate(-47.996 -33.182)" fill="#80cded"/>
      <path id="Path_888" data-name="Path 888" d="M160.242,64.438c-.146.6-.292,1.161-.417,1.725-.07.313-.32.362-.556.431-1.891.577-3.776,1.2-5.619,1.933-3.345,1.321-6.606,2.844-9.846,4.409a163.218,163.218,0,0,0-24.178,14.526c-1.259.9-2.5,1.822-3.755,2.733-.118.09-.243.16-.5.327.389-1.057.48-2.01,1.391-2.719A164.722,164.722,0,0,1,134.34,75.717a102.674,102.674,0,0,1,20.819-9.735l4.868-1.537A.689.689,0,0,1,160.242,64.438Z" transform="translate(-50.065 -26.39)" fill="#80cded"/>
      <path id="Path_889" data-name="Path 889" d="M91.981,178.8a3.4,3.4,0,0,1,.153-1.69c.355-2.482.765-4.958,1.154-7.433l1.391-8.762c.48-3.087.946-6.175,1.432-9.255q.668-4.339,1.391-8.664c.042-.236-.049-.515.195-.7a32.614,32.614,0,0,0,1.752,6.62,14.052,14.052,0,0,1-.577,2.614q-3.407,13.56-6.849,27.119A1.04,1.04,0,0,0,91.981,178.8Z" transform="translate(-42.926 -50.111)" fill="#3c3d3b"/>
      <path id="Path_890" data-name="Path 890" d="M162.06,178.71c.1-1.259.355-2.5.542-3.748.375-2.476.772-4.958,1.168-7.433s.779-4.923,1.161-7.385q.626-4.047,1.245-8.08.6-3.922,1.238-7.83a12.362,12.362,0,0,1,.348-1.954,37.865,37.865,0,0,0,1.829,6.7q-.751,3.046-1.509,6.091l-5.82,23.107a1.015,1.015,0,0,1-.2.535Z" transform="translate(-64.288 -50.105)" fill="#3c3d3b"/>
      <path id="Path_891" data-name="Path 891" d="M36,258.59h2.037c.118.153.063.32.063.48v5.4a1.391,1.391,0,0,0,1.328,1.565,2.857,2.857,0,0,0,1.238-.07,1.391,1.391,0,0,0,1.015-1.53V258.6h2.044s.042.042.042.07c0,1.982.049,3.971,0,5.952a2.747,2.747,0,0,1-2.684,2.969,7.051,7.051,0,0,1-2.879-.1,2.622,2.622,0,0,1-2.2-2.712C36,262.748,36,260.7,36,258.59Z" transform="translate(-10.935 -76.164)" fill="#114c66"/>
      <path id="Path_892" data-name="Path 892" d="M195.32,267.45a6.326,6.326,0,0,1-1.711,0,2.518,2.518,0,0,0-1.314.118,4.109,4.109,0,0,1-1.488.049,2.246,2.246,0,0,1-2.086-1.884,6.62,6.62,0,0,1,0-3.067,2.621,2.621,0,0,1,3.018-2.017c.494.035.987.09,1.53.139V258.16h2Zm-1.989-3.407v-.6c0-1.259-.09-1.342-1.391-1.279h-.1a1.133,1.133,0,0,0-1.12,1.015,4.535,4.535,0,0,0,0,1.836,1.057,1.057,0,0,0,1.217.973c.264,0,.528-.063.793-.076.48,0,.654-.25.591-.73a10.519,10.519,0,0,1,.007-1.14Z" transform="translate(-57.405 -76.033)" fill="#114c66"/>
      <path id="Path_893" data-name="Path 893" d="M183.528,267.444a6.3,6.3,0,0,1-1.7,0,2.447,2.447,0,0,0-1.314.118,4.174,4.174,0,0,1-1.731,0,2.246,2.246,0,0,1-1.808-1.85,6.62,6.62,0,0,1,0-3.067,2.614,2.614,0,0,1,3.011-2.017c.5.035.994.09,1.537.139V258.14h2Zm-1.982-3.407v-.6c0-1.266-.083-1.342-1.356-1.279h-.1a1.133,1.133,0,0,0-1.12,1.015,4.5,4.5,0,0,0,0,1.877.994.994,0,0,0,1.106.925,10.6,10.6,0,0,0,1.231-.146c.229,0,.25-.167.25-.348C181.54,265,181.547,264.524,181.547,264.037Z" transform="translate(-53.825 -76.027)" fill="#114c66"/>
      <path id="Path_894" data-name="Path 894" d="M214.12,267.411h-2.01V258.1h2v2.865a3.728,3.728,0,0,0,.987-.264,3.936,3.936,0,0,1,1.731-.042,2.153,2.153,0,0,1,1.718,2.329c.07,1.46,0,2.927,0,4.416h-2v-3.373a3.98,3.98,0,0,0-.083-.994.89.89,0,0,0-.953-.834h-.049c-1.231-.042-1.349.069-1.349,1.286Z" transform="translate(-64.585 -76.015)" fill="#114c66"/>
      <path id="Path_895" data-name="Path 895" d="M172.286,265.959h-4.332c0,.7.223.946.8,1.057a13.847,13.847,0,0,0,2.781,0h.584a3.943,3.943,0,0,1,.07,1.293,10.432,10.432,0,0,1-4.3.243,2.385,2.385,0,0,1-1.954-2.128,6.2,6.2,0,0,1,.083-2.58,2.587,2.587,0,0,1,2.086-2.086,5.084,5.084,0,0,1,2.42.063,2.51,2.51,0,0,1,1.864,2.336A8.345,8.345,0,0,1,172.286,265.959Zm-4.353-1.432h2.455c.1-.911-.236-1.321-1.092-1.391C168.336,263.115,167.905,263.532,167.933,264.527Z" transform="translate(-50.489 -77.094)" fill="#114c66"/>
      <path id="Path_896" data-name="Path 896" d="M83.92,265.954H79.6c0,.647.2.939.772,1.05a12.887,12.887,0,0,0,2.74,0h.654a4.638,4.638,0,0,1,.07,1.293,9.717,9.717,0,0,1-4.534.181,2.336,2.336,0,0,1-1.725-2.086,6.454,6.454,0,0,1,.076-2.58,2.608,2.608,0,0,1,2.086-2.086,5,5,0,0,1,2.42.056,2.5,2.5,0,0,1,1.871,2.329,8.115,8.115,0,0,1-.111,1.843Zm-4.346-1.439h2.441c.076-.953-.3-1.391-1.21-1.391S79.519,263.583,79.574,264.515Z" transform="translate(-23.573 -77.082)" fill="#114c66"/>
      <path id="Path_897" data-name="Path 897" d="M206.879,268.709a4.067,4.067,0,0,1-1.891-.348.654.654,0,0,0-.612,0,4.987,4.987,0,0,1-2.552.257,1.871,1.871,0,0,1-1.606-1.982,1.752,1.752,0,0,1,1.426-2.037,25.611,25.611,0,0,1,2.719-.3c.146-.869-.042-1.092-.911-1.092h-2.7a5.563,5.563,0,0,1-.035-1.154,11.23,11.23,0,0,1,3.873-.334,1.891,1.891,0,0,1,1.871,2.086c0,.786,0,1.565,0,2.35,0,.424-.132.925.431,1.168.042,0,.063.146.063.223C206.935,267.931,206.907,268.292,206.879,268.709ZM204.4,265.6c-.535.049-1.043.063-1.544.153s-.626.41-.57.9.362.57.744.563a3.476,3.476,0,0,0,1.391-.236Z" transform="translate(-60.953 -77.105)" fill="#114c66"/>
      <path id="Path_898" data-name="Path 898" d="M122.076,271.391l.807-2.781h-1.391c-.591-2.135-1.175-4.235-1.752-6.335a3.059,3.059,0,0,1-.07-.362h1.8c.236,0,.229.195.271.355q.584,2.211,1.182,4.436c.042.153,0,.369.25.369s.209-.223.25-.376c.389-1.46.793-2.921,1.154-4.388.083-.334.222-.424.542-.41h1.572c-.229.821-.438,1.585-.654,2.35-.619,2.246-1.252,4.485-1.857,6.731-.083.313-.2.438-.535.417C123.154,271.37,122.681,271.391,122.076,271.391Z" transform="translate(-36.424 -77.172)" fill="#114c66"/>
      <path id="Path_899" data-name="Path 899" d="M142.375,265.273a4.116,4.116,0,0,1-.16,1.168,3.2,3.2,0,0,1-3.637,2.2c-2.538-.209-3.247-1.982-3.087-3.922a3.519,3.519,0,0,1,5.632-2.517A3.45,3.45,0,0,1,142.375,265.273Zm-4.868-.16a5.433,5.433,0,0,0,.09.89,1.335,1.335,0,0,0,2.635-.1,4.665,4.665,0,0,0,0-1.585,1.245,1.245,0,0,0-1.279-1.154,1.224,1.224,0,0,0-1.349,1.057,5.56,5.56,0,0,0-.076.89Z" transform="translate(-41.237 -77.048)" fill="#114c66"/>
      <path id="Path_900" data-name="Path 900" d="M56.488,268.566H54.464v-3.233a4.325,4.325,0,0,0-.07-.994.911.911,0,0,0-1-.841h-.3c-.987.083-1.078.174-1.078,1.154v3.8a.161.161,0,0,1-.049.1H50V262.03c1.161-.181,1.891-.09,2.086.257a4.978,4.978,0,0,1,1.773-.417c1.7,0,2.482.7,2.615,2.406v.8Z" transform="translate(-15.2 -77.163)" fill="#114c66"/>
      <path id="Path_901" data-name="Path 901" d="M96.633,268.392v-1.509c.862.07,1.669.139,2.475.195a3.014,3.014,0,0,0,.994-.1c.181-.056.341-.139.348-.369a.41.41,0,0,0-.313-.4,6.5,6.5,0,0,0-1.266-.264c-.327-.063-.654-.118-.974-.209a1.669,1.669,0,0,1-1.446-1.613,1.982,1.982,0,0,1,1.2-2.086,5.091,5.091,0,0,1,2.559-.271c.7.056,1.342.181,2.03.271a8.379,8.379,0,0,1,0,1.509c-.89-.056-1.766-.209-2.642-.195a5.89,5.89,0,0,0-.7.07.347.347,0,0,0-.376.334.375.375,0,0,0,.334.424c.424.1.841.195,1.273.264a8.561,8.561,0,0,1,1.161.285,1.585,1.585,0,0,1,1.217,1.62,1.961,1.961,0,0,1-1.029,2.01,4.4,4.4,0,0,1-2.086.375,16.468,16.468,0,0,1-2.761-.341Z" transform="translate(-29.346 -77.114)" fill="#114c66"/>
      <path id="Path_902" data-name="Path 902" d="M73.388,261.9c-.6,2.267-1.2,4.464-1.787,6.669H68.124L66.33,261.9h1.85c.285,0,.313.167.362.376.32,1.391.654,2.816.98,4.228a2.49,2.49,0,0,0,.063.243c.049.139,0,.348.271.334s.236-.2.271-.355c.362-1.474.737-2.941,1.078-4.416.077-.341.216-.424.535-.41C72.275,261.92,72.79,261.9,73.388,261.9Z" transform="translate(-20.175 -77.172)" fill="#114c66"/>
      <path id="Path_903" data-name="Path 903" d="M149.772,260.672h1.745v1.558h-1.745v5.1h-2.017v-5c-.264-.167-.528-.035-.786-.132v-1.5l.737-.056a12.892,12.892,0,0,1,.111-1.307,1.572,1.572,0,0,1,1.662-1.474,7.681,7.681,0,0,1,.8,0c.445,0,.883.07,1.349.111a6.669,6.669,0,0,1-.049,1.488h-.7C149.918,259.42,149.717,259.629,149.772,260.672Z" transform="translate(-44.741 -75.937)" fill="#114c66"/>
      <path id="Path_904" data-name="Path 904" d="M114.827,262.673v3.1c0,.417.243.584.647.57a4,4,0,0,1,1.078,0l.111,1.391a5.924,5.924,0,0,1-2.336.167,1.565,1.565,0,0,1-1.481-1.5,28.936,28.936,0,0,1-.076-3.3v-.424l-.869-.049V261.1h.862v-1.8h2.03v1.794H116.6v1.578Z" transform="translate(-34.057 -76.38)" fill="#114c66"/>
      <path id="Path_905" data-name="Path 905" d="M159.05,268.506v-1.613a.694.694,0,0,0,.292-.042c.6-.09.8-.306.8-.925V258.5h2.023c.118.1.063.264.063.41v7.044a4.326,4.326,0,0,1-.076.848,1.732,1.732,0,0,1-1.516,1.558A9.623,9.623,0,0,1,159.05,268.506Z" transform="translate(-48.421 -76.137)" fill="#114c66"/>
      <path id="Path_906" data-name="Path 906" d="M91.024,268.523H89v-6.6h1.954l.042.626a9.573,9.573,0,0,1,2.35-.8v1.794c-.528.118-1.064.271-1.62.362s-.758.306-.73.911C91.086,266.013,91.024,267.243,91.024,268.523Z" transform="translate(-27.081 -77.127)" fill="#114c66"/>
      <path id="Path_907" data-name="Path 907" d="M109.276,262v6.627h-2V262Z" transform="translate(-32.65 -77.203)" fill="#114c66"/>
      <path id="Path_908" data-name="Path 908" d="M61.82,261.92h1.975v6.655H61.82Z" transform="translate(-18.801 -77.179)" fill="#114c66"/>
      <path id="Path_909" data-name="Path 909" d="M213.9,249.032H210.62V245.59H213.9Z" transform="translate(-67.135 -74.126)" fill="#114c66"/>
      <path id="Path_910" data-name="Path 910" d="M93.834,249.037H90.58V245.56h3.254Z" transform="translate(-30.567 -74.117)" fill="#114c66"/>
      <path id="Path_911" data-name="Path 911" d="M125.25,218.061V214.73h2.74v3.331Z" transform="translate(-41.128 -64.725)" fill="#114c66"/>
      <path id="Path_912" data-name="Path 912" d="M48.14,218.054V214.73h2.74v3.324Z" transform="translate(-17.638 -64.725)" fill="#114c66"/>
      <path id="Path_913" data-name="Path 913" d="M122.111,218.081H119.33V214.75h2.781Z" transform="translate(-39.325 -64.731)" fill="#114c66"/>
      <path id="Path_914" data-name="Path 914" d="M42.3,214.73H45v3.331H42.3Z" transform="translate(-15.859 -64.725)" fill="#114c66"/>
      <path id="Path_915" data-name="Path 915" d="M107.26,259.909V258.15h1.968v1.759Z" transform="translate(-32.644 -76.03)" fill="#114c66"/>
      <path id="Path_916" data-name="Path 916" d="M63.765,258.16v1.745H61.79V258.16Z" transform="translate(-18.792 -76.033)" fill="#114c66"/>
      <path id="Path_917" data-name="Path 917" d="M124.2,84.286s-.042.083-.083,0l.056-.056Z" transform="translate(-52.73 -32.421)" fill="#80cded"/>
      <path id="Path_918" data-name="Path 918" d="M174.29,86.7l.049-.042-.042.049Z" transform="translate(-68.014 -33.161)" fill="#80cded"/>
      <path id="Path_919" data-name="Path 919" d="M161.965,195.042a.273.273,0,0,1,0-.382Z" transform="translate(-64.235 -66.061)" fill="#3c3d3b"/>
      <path id="Path_920" data-name="Path 920" d="M199.156,184.836a1.6,1.6,0,0,1-1.467-.744,3.887,3.887,0,0,1-.7-1.683,1.029,1.029,0,0,1,.424-1.133,1.119,1.119,0,0,1,1.314.042,3.526,3.526,0,0,1,1.391,2.51.89.89,0,0,1-.967,1.008Z" transform="translate(-74.919 -61.925)" fill="#80cded"/>
      <path id="Path_921" data-name="Path 921" d="M213.577,175.57l1.217,1.474a8.274,8.274,0,0,1-1.314.869v-2.3Z" transform="translate(-79.953 -60.246)" fill="#80cded"/>
      <path id="Path_922" data-name="Path 922" d="M129.54,139.982v-.007Z" transform="translate(-54.382 -49.392)" fill="#80cded"/>
      <path id="Path_923" data-name="Path 923" d="M136.132,141.833l-.042-.063.056.042Z" transform="translate(-56.377 -49.949)" fill="#80cded"/>
      <path id="Path_924" data-name="Path 924" d="M130,141.812l.056-.042-.042.063Z" transform="translate(-54.522 -49.949)" fill="#80cded"/>
    </g>
  </g>
</svg>
